<?xml version="1.0" encoding="UTF-8"?>
<svg id="Layer_2" xmlns="http://www.w3.org/2000/svg" viewBox="0 0 828.4 267.81">
  <defs>
    <style>
      .cls-1 {
        fill: #fff;
      }

      .cls-2 {
        fill: #6c0dd1;
      }

      .cls-3 {
        fill: #2d1972;
      }
    </style>
  </defs>
  <g id="Layer_1-2" data-name="Layer_1">
    <g>
      <g>
        <path class="cls-3" d="M299.93,80.2h52.62c8.77,0,15.5,2.17,20.2,6.52s7.04,9.72,7.04,16.13c0,5.38-1.68,9.99-5.03,13.84-2.23,2.57-5.5,4.59-9.81,6.08,6.54,1.57,11.35,4.27,14.43,8.1,3.08,3.83,4.62,8.64,4.62,14.43,0,4.72-1.1,8.96-3.29,12.72-2.19,3.77-5.19,6.74-9,8.94-2.36,1.37-5.92,2.36-10.67,2.98-6.33.83-10.53,1.24-12.6,1.24h-48.53v-90.97ZM328.29,115.89h12.22c4.38,0,7.44-.75,9.15-2.27,1.72-1.51,2.58-3.69,2.58-6.55,0-2.65-.86-4.72-2.58-6.21-1.72-1.49-4.71-2.23-8.97-2.23h-12.41v17.25ZM328.29,151.63h14.33c4.84,0,8.25-.86,10.24-2.58s2.98-4.02,2.98-6.92c0-2.69-.98-4.85-2.95-6.49-1.97-1.63-5.41-2.45-10.33-2.45h-14.27v18.43Z"/>
        <path class="cls-3" d="M399.09,171.18v-90.97h46.85c8.69,0,15.33.74,19.92,2.23,4.59,1.49,8.29,4.25,11.11,8.29,2.81,4.03,4.22,8.95,4.22,14.74,0,5.05-1.08,9.4-3.23,13.06-2.15,3.66-5.11,6.63-8.88,8.91-2.4,1.45-5.69,2.65-9.87,3.6,3.35,1.12,5.79,2.24,7.32,3.35,1.03.75,2.53,2.34,4.5,4.78,1.96,2.44,3.28,4.33,3.94,5.65l13.61,26.36h-31.76l-15.03-27.8c-1.9-3.6-3.6-5.94-5.09-7.01-2.03-1.41-4.32-2.11-6.89-2.11h-2.48v36.92h-28.24ZM427.33,117.06h11.85c1.28,0,3.76-.41,7.45-1.24,1.86-.37,3.38-1.32,4.56-2.85,1.18-1.53,1.77-3.29,1.77-5.27,0-2.94-.93-5.19-2.79-6.76-1.86-1.57-5.36-2.36-10.49-2.36h-12.35v18.49Z"/>
        <path class="cls-3" d="M498.7,80.2h28.17v90.97h-28.17v-90.97Z"/>
        <path class="cls-3" d="M547.41,80.2h41.76c8.23,0,14.88,1.12,19.95,3.35,5.07,2.23,9.26,5.44,12.57,9.62,3.31,4.18,5.71,9.04,7.2,14.58,1.49,5.54,2.23,11.42,2.23,17.62,0,9.72-1.11,17.26-3.32,22.62-2.21,5.36-5.29,9.85-9.22,13.47-3.93,3.62-8.15,6.03-12.66,7.23-6.17,1.66-11.75,2.48-16.76,2.48h-41.76v-90.97ZM575.52,100.81v49.71h6.89c5.87,0,10.05-.65,12.54-1.95,2.48-1.3,4.43-3.58,5.83-6.83,1.41-3.25,2.11-8.51,2.11-15.79,0-9.64-1.57-16.24-4.72-19.8-3.14-3.56-8.36-5.34-15.64-5.34h-7.01Z"/>
        <path class="cls-3" d="M691.63,138.23v-18.93h43.44v38.79c-8.32,5.67-15.67,9.53-22.06,11.57-6.39,2.05-13.97,3.07-22.74,3.07-10.8,0-19.6-1.84-26.41-5.52-6.81-3.68-12.08-9.16-15.82-16.45-3.74-7.28-5.62-15.64-5.62-25.07,0-9.93,2.05-18.56,6.14-25.91s10.09-12.92,18-16.72c6.16-2.94,14.46-4.41,24.88-4.41s17.57.91,22.56,2.73c4.99,1.82,9.12,4.64,12.41,8.47,3.29,3.83,5.76,8.68,7.42,14.55l-27.12,4.84c-1.12-3.43-3.01-6.06-5.68-7.88-2.67-1.82-6.07-2.73-10.21-2.73-6.17,0-11.08,2.14-14.74,6.42s-5.49,11.06-5.49,20.32c0,9.85,1.85,16.88,5.55,21.1s8.86,6.33,15.48,6.33c3.14,0,6.14-.45,9-1.37,2.85-.91,6.12-2.46,9.81-4.65v-8.56h-18.8Z"/>
        <path class="cls-3" d="M751.7,80.2h75.34v19.42h-47.16v14.46h43.75v18.55h-43.75v17.93h48.53v20.6h-76.7v-90.97Z"/>
      </g>
      <path class="cls-2" d="M0,190.39h271.58V54.66H0v135.72Z"/>
      <path class="cls-2" d="M8.04,48.97h121.32L216.66,0h-121.32L8.04,48.97Z"/>
      <path class="cls-2" d="M140.98,48.97h132.69L360.98,0h-132.7l-87.3,48.97Z"/>
      <g>
        <path class="cls-1" d="M27.96,138.69l24.04-1.51c.52,3.91,1.58,6.88,3.18,8.93,2.6,3.31,6.32,4.96,11.16,4.96,3.61,0,6.39-.85,8.34-2.54s2.93-3.65,2.93-5.89-.93-4.02-2.79-5.69c-1.86-1.67-6.17-3.25-12.94-4.74-11.08-2.49-18.99-5.8-23.71-9.93-4.76-4.13-7.14-9.39-7.14-15.79,0-4.2,1.22-8.17,3.65-11.91,2.44-3.74,6.1-6.68,10.99-8.81s11.59-3.21,20.11-3.21c10.45,0,18.42,1.94,23.91,5.83,5.49,3.89,8.75,10.07,9.79,18.55l-23.82,1.39c-.63-3.68-1.96-6.36-3.99-8.03s-4.83-2.51-8.4-2.51c-2.94,0-5.15.62-6.64,1.87-1.49,1.25-2.23,2.76-2.23,4.55,0,1.3.61,2.47,1.84,3.51,1.19,1.08,4.02,2.08,8.48,3.01,11.05,2.38,18.96,4.79,23.74,7.22,4.78,2.44,8.26,5.46,10.43,9.07,2.18,3.61,3.26,7.64,3.26,12.11,0,5.24-1.45,10.08-4.35,14.5-2.9,4.43-6.96,7.78-12.16,10.07s-11.77,3.43-19.69,3.43c-13.91,0-23.54-2.68-28.9-8.03-5.36-5.36-8.39-12.16-9.09-20.42Z"/>
        <path class="cls-1" d="M115.88,83.96h25.33v81.78h-25.33v-81.78Z"/>
        <path class="cls-1" d="M153.76,83.96h27.84l14.48,25.16,14.09-25.16h27.56l-25.46,39.61,27.85,42.17h-28.4l-16.15-26.28-16.15,26.28h-28.23l28.21-42.62-25.64-39.16Z"/>
      </g>
      <g>
        <path d="M321.59,235.2h-16.62v15.41h18.52v4.63h-24.04v-42.75h23.09v4.63h-17.57v13.51h16.62v4.57Z"/>
        <path d="M330.47,210.21h5.58v45.04h-5.58v-45.04Z"/>
        <path d="M358.88,234.57c0-3.93-.13-7.1-.25-10.02h5.01l.25,5.26h.13c2.28-3.74,5.9-5.96,10.91-5.96,7.42,0,13,6.28,13,15.6,0,11.04-6.72,16.49-13.96,16.49-4.06,0-7.61-1.78-9.45-4.82h-.13v16.68h-5.52v-33.24ZM364.4,242.75c0,.83.13,1.59.25,2.28,1.02,3.87,4.38,6.53,8.37,6.53,5.9,0,9.32-4.82,9.32-11.86,0-6.15-3.23-11.42-9.13-11.42-3.81,0-7.36,2.73-8.44,6.91-.19.7-.38,1.52-.38,2.28v5.26Z"/>
        <path d="M420.66,246.88c0,3.17.06,5.96.25,8.37h-4.95l-.32-5.01h-.13c-1.46,2.47-4.69,5.71-10.15,5.71-4.82,0-10.59-2.66-10.59-13.45v-17.95h5.58v17c0,5.84,1.78,9.77,6.85,9.77,3.74,0,6.34-2.6,7.36-5.07.32-.83.51-1.84.51-2.85v-18.84h5.58v22.33Z"/>
        <path d="M433.03,240.91c.13,7.55,4.95,10.66,10.53,10.66,4,0,6.41-.7,8.5-1.59l.95,4c-1.97.89-5.33,1.9-10.21,1.9-9.45,0-15.1-6.22-15.1-15.48s5.46-16.56,14.4-16.56c10.02,0,12.69,8.82,12.69,14.46,0,1.14-.13,2.03-.19,2.6h-21.57ZM449.4,236.92c.06-3.55-1.46-9.07-7.74-9.07-5.65,0-8.12,5.2-8.56,9.07h16.3Z"/>
        <path d="M461.7,232.86c0-3.17-.06-5.77-.25-8.31h4.95l.32,5.07h.13c1.52-2.92,5.07-5.77,10.15-5.77,4.25,0,10.85,2.54,10.85,13.07v18.33h-5.58v-17.7c0-4.95-1.84-9.07-7.1-9.07-3.68,0-6.53,2.6-7.49,5.71-.25.7-.38,1.65-.38,2.6v18.46h-5.58v-22.39Z"/>
        <path d="M503.38,215.73v8.82h7.99v4.25h-7.99v16.55c0,3.81,1.08,5.96,4.19,5.96,1.46,0,2.54-.19,3.23-.38l.25,4.19c-1.08.44-2.79.76-4.95.76-2.6,0-4.69-.83-6.03-2.35-1.59-1.65-2.16-4.38-2.16-7.99v-16.75h-4.76v-4.25h4.76v-7.36l5.46-1.46Z"/>
        <path d="M520.38,240.91c.13,7.55,4.95,10.66,10.53,10.66,4,0,6.41-.7,8.5-1.59l.95,4c-1.97.89-5.33,1.9-10.21,1.9-9.45,0-15.1-6.22-15.1-15.48s5.46-16.56,14.4-16.56c10.02,0,12.69,8.82,12.69,14.46,0,1.14-.13,2.03-.19,2.6h-21.57ZM536.74,236.92c.06-3.55-1.46-9.07-7.74-9.07-5.65,0-8.12,5.2-8.56,9.07h16.3Z"/>
        <path d="M589.01,210.21v37.11c0,2.73.06,5.84.25,7.93h-5.01l-.25-5.33h-.13c-1.71,3.42-5.46,6.03-10.47,6.03-7.42,0-13.13-6.28-13.13-15.6-.06-10.21,6.28-16.49,13.76-16.49,4.69,0,7.87,2.22,9.26,4.69h.13v-18.33h5.58ZM583.42,237.04c0-.7-.06-1.65-.25-2.35-.82-3.55-3.87-6.47-8.06-6.47-5.77,0-9.2,5.07-9.2,11.86,0,6.22,3.04,11.35,9.07,11.35,3.74,0,7.17-2.47,8.18-6.66.19-.76.25-1.52.25-2.41v-5.33Z"/>
        <path d="M601.38,240.91c.13,7.55,4.95,10.66,10.53,10.66,4,0,6.41-.7,8.5-1.59l.95,4c-1.97.89-5.33,1.9-10.21,1.9-9.45,0-15.1-6.22-15.1-15.48s5.46-16.56,14.4-16.56c10.02,0,12.69,8.82,12.69,14.46,0,1.14-.13,2.03-.19,2.6h-21.57ZM617.74,236.92c.06-3.55-1.46-9.07-7.74-9.07-5.65,0-8.12,5.2-8.56,9.07h16.3Z"/>
        <path d="M630.05,210.21h5.58v45.04h-5.58v-45.04Z"/>
        <path d="M675.46,255.25l-.44-3.87h-.19c-1.71,2.41-5.01,4.57-9.39,4.57-6.22,0-9.39-4.38-9.39-8.82,0-7.42,6.6-11.48,18.46-11.42v-.63c0-2.54-.7-7.1-6.98-7.1-2.85,0-5.84.89-7.99,2.28l-1.27-3.68c2.54-1.65,6.22-2.73,10.08-2.73,9.39,0,11.67,6.41,11.67,12.56v11.48c0,2.66.13,5.27.51,7.36h-5.07ZM674.64,239.58c-6.09-.13-13,.95-13,6.91,0,3.62,2.41,5.33,5.26,5.33,4,0,6.53-2.54,7.42-5.14.19-.57.32-1.21.32-1.78v-5.33Z"/>
        <path d="M689.04,210.21h5.58v19.16h.13c.89-1.59,2.28-2.98,4-3.93,1.65-.95,3.62-1.59,5.71-1.59,4.12,0,10.72,2.54,10.72,13.13v18.27h-5.58v-17.63c0-4.95-1.84-9.13-7.1-9.13-3.62,0-6.47,2.54-7.49,5.58-.32.76-.38,1.58-.38,2.66v18.52h-5.58v-45.04Z"/>
        <path d="M752.02,239.64c0,11.35-7.87,16.3-15.29,16.3-8.31,0-14.72-6.09-14.72-15.79,0-10.28,6.72-16.3,15.22-16.3s14.78,6.41,14.78,15.79ZM727.67,239.96c0,6.72,3.87,11.8,9.32,11.8s9.32-5.01,9.32-11.93c0-5.2-2.6-11.8-9.2-11.8s-9.45,6.09-9.45,11.92Z"/>
        <path d="M759.06,234.13c0-3.62-.06-6.72-.25-9.58h4.88l.19,6.03h.25c1.4-4.12,4.76-6.72,8.5-6.72.63,0,1.08.06,1.58.19v5.26c-.57-.13-1.14-.19-1.9-.19-3.93,0-6.72,2.98-7.49,7.17-.13.76-.25,1.65-.25,2.6v16.37h-5.52v-21.12Z"/>
        <path d="M780.06,234.13c0-3.62-.06-6.72-.25-9.58h4.88l.19,6.03h.25c1.4-4.12,4.76-6.72,8.5-6.72.63,0,1.08.06,1.58.19v5.26c-.57-.13-1.14-.19-1.9-.19-3.93,0-6.72,2.98-7.49,7.17-.13.76-.25,1.65-.25,2.6v16.37h-5.52v-21.12Z"/>
        <path d="M827.95,239.64c0,11.35-7.87,16.3-15.29,16.3-8.31,0-14.72-6.09-14.72-15.79,0-10.28,6.72-16.3,15.22-16.3s14.78,6.41,14.78,15.79ZM803.59,239.96c0,6.72,3.87,11.8,9.32,11.8s9.32-5.01,9.32-11.93c0-5.2-2.6-11.8-9.2-11.8s-9.45,6.09-9.45,11.92Z"/>
      </g>
    </g>
  </g>
</svg>